<svg width="212" height="49" viewBox="0 0 212 49" fill="none" xmlns="http://www.w3.org/2000/svg">
<path fill-rule="evenodd" clip-rule="evenodd" d="M18.2629 21.4712C17.8396 24.236 16.0356 25.1902 14.1508 25.1902C11.2068 25.1902 10.1488 24.1843 10.4455 22.2449C10.7583 20.2009 12.5135 19.1908 16.5036 19.1908H18.6175L18.2629 21.4712ZM28.7245 18.3173L29.4469 13.5995C30.8207 4.62382 25.9952 0.366882 17.5703 0.366882C8.86069 0.366882 4.34721 4.12646 3.77661 7.89721L3.20601 11.61C5.95142 9.61686 8.26113 8.27995 13.9659 8.27995C18.1256 8.27995 19.9673 8.89399 19.5941 11.3866L19.3921 12.6689H17.9009C6.81043 12.6689 1.40567 16.0983 0.373712 22.8437C-0.686798 29.7781 6.03666 32.5562 11.9135 32.5562C22.9953 32.5554 27.0259 29.3933 28.7245 18.3173Z" fill="white"/>
<path fill-rule="evenodd" clip-rule="evenodd" d="M51.0589 0.429138C40.9131 0.429138 33.053 7.60775 31.5936 17.1043C30.1164 26.7222 35.5348 32.5858 44.2324 32.5858C48.1099 32.5858 50.5305 30.5455 52.0967 28.2771L49.6996 42.1151C48.9859 46.7494 50.4246 48.906 55.579 48.906H58.7961L64.1218 16.0608C65.6226 6.27415 61.1501 0.429138 51.0589 0.429138ZM48.8874 8.43365C52.8766 8.43365 54.6964 10.6916 53.7696 16.7249C52.9677 21.9219 50.1209 24.1857 47.2977 24.1857C43.6957 24.1857 41.3513 22.1441 42.291 16.0095C43.0701 10.9825 46.3369 8.43365 48.8874 8.43365Z" fill="white"/>
<path fill-rule="evenodd" clip-rule="evenodd" d="M98.5381 18.2613L100.32 6.63786C100.998 2.19472 98.9399 0.429138 94.7335 0.429138H90.6313L87.9537 17.8731C87.2127 22.6883 85.0056 24.1361 82.5076 24.1361C79.6298 24.1361 77.733 22.7462 78.4191 18.2613L80.2004 6.63786C80.9108 1.97253 79.1572 0.429138 74.5627 0.429138H70.4588L67.7718 17.9766C66.2677 27.7343 70.9156 32.5564 80.7701 32.5564C90.1476 32.5564 97.0432 28.026 98.5381 18.2613Z" fill="white"/>
<path fill-rule="evenodd" clip-rule="evenodd" d="M111.599 32.5564H108.06C103.561 32.5564 101.346 30.7892 102.03 26.3473L105.993 0.428741H108.6C114.412 0.428741 116.271 2.14799 115.423 7.68266L111.599 32.5564Z" fill="white"/>
<path fill-rule="evenodd" clip-rule="evenodd" d="M145.415 32.5564L148.079 15.1662C149.45 6.12395 145.946 0.429138 135.139 0.429138C125.447 0.429138 118.743 6.12436 117.403 14.8894L115.66 26.3473C114.977 30.7888 117.191 32.5564 121.695 32.5564H125.223L127.973 14.7168C128.545 11.0135 130.514 8.95625 133.565 8.95625C137.101 8.95625 138.202 10.7905 137.59 14.8894L135.814 26.3473C135.116 31.006 136.322 32.5564 140.966 32.5564H145.415V32.5564Z" fill="white"/>
<path fill-rule="evenodd" clip-rule="evenodd" d="M150.868 17.1494C149.503 26.1246 155.609 32.5564 164.301 32.5564C174.841 32.5564 181.871 26.1246 183.38 16.1542C184.847 6.73213 178.311 0.42038 170.016 0.42038C160.416 0.42038 152.423 7.07433 150.868 17.1494ZM172.833 17.0948C172.183 21.3169 169.564 24.3557 166.223 24.3557C162.511 24.3557 160.573 21.7994 161.468 15.9325C162.121 11.7798 165.184 8.72736 168.08 8.72736C171.735 8.72736 173.672 11.6106 172.833 17.0948Z" fill="white"/>
<path fill-rule="evenodd" clip-rule="evenodd" d="M210.446 21.852C211.244 16.7042 208.22 13.9397 203.261 13.1163C197.036 12.0492 196.432 11.6623 196.625 10.505C196.799 9.22598 198.252 8.17251 202.172 8.17251C206.279 8.17251 209.324 9.22598 211.164 10.7296L211.918 7.56343C212.604 3.01437 208.934 0.302063 202.159 0.302063C195.19 0.302063 187.689 4.02109 186.571 11.3325C185.824 16.2031 188.311 18.7068 193.684 19.481C199.868 20.3615 200.508 20.9044 200.293 22.2997C200.062 23.8042 198.715 24.6839 194.893 24.6839C190.571 24.6839 187.689 23.5162 185.916 22.0237L185.169 25.072C184.492 29.5164 187.024 32.5564 195.352 32.5564C203.712 32.5564 209.453 28.4016 210.446 21.852Z" fill="white"/>
</svg>
