<svg width="75" height="18" viewBox="0 0 75 18" fill="none" xmlns="http://www.w3.org/2000/svg">
<path fill-rule="evenodd" clip-rule="evenodd" d="M6.33604 7.45149C6.18704 8.4247 5.55202 8.76056 4.8886 8.76056C3.85233 8.76056 3.47991 8.4065 3.58434 7.72385C3.69445 7.00436 4.31228 6.64884 5.71675 6.64884H6.46086L6.33604 7.45149ZM10.0184 6.34138L10.2727 4.68072C10.7563 1.52136 9.05773 0.0229492 6.09223 0.0229492C3.02652 0.0229492 1.4378 1.34629 1.23696 2.67357L1.03611 3.98045C2.00248 3.27887 2.81547 2.80829 4.8235 2.80829C6.28768 2.80829 6.93596 3.02443 6.80458 3.9018L6.73351 4.35316H6.2086C2.30484 4.35316 0.402405 5.56028 0.039163 7.9346C-0.334129 10.3755 2.03248 11.3534 4.10109 11.3534C8.00179 11.3531 9.42054 10.24 10.0184 6.34138Z" fill="white"/>
<path fill-rule="evenodd" clip-rule="evenodd" d="M17.8801 0.0446777C14.3088 0.0446777 11.5421 2.5715 11.0284 5.91423C10.5085 9.29963 12.4157 11.3636 15.4772 11.3636C16.842 11.3636 17.6941 10.6454 18.2453 9.84697L17.4016 14.7178C17.1504 16.3491 17.6568 17.1082 19.4711 17.1082H20.6035L22.4781 5.5469C23.0064 2.10208 21.4321 0.0446777 17.8801 0.0446777ZM17.1157 2.86221C18.5199 2.86221 19.1604 3.657 18.8342 5.78067C18.5519 7.60999 17.5499 8.40682 16.5561 8.40682C15.2883 8.40682 14.463 7.6882 14.7938 5.52884C15.0681 3.75939 16.2179 2.86221 17.1157 2.86221Z" fill="white"/>
<path fill-rule="evenodd" clip-rule="evenodd" d="M34.5924 6.32145L35.2197 2.2301C35.4584 0.666151 34.7338 0.0446777 33.2532 0.0446777L31.8092 0.0446777L30.8668 6.18483C30.6059 7.87972 29.829 8.38934 28.9498 8.38934C27.9368 8.38934 27.2691 7.90011 27.5106 6.32145L28.1376 2.2301C28.3877 0.587939 27.7705 0.0446777 26.1532 0.0446777L24.7087 0.0446777L23.7629 6.22125C23.2334 9.65588 24.8695 11.3532 28.3382 11.3532C31.639 11.3532 34.0662 9.75856 34.5924 6.32145Z" fill="white"/>
<path fill-rule="evenodd" clip-rule="evenodd" d="M39.1899 11.3534H37.9442C36.3603 11.3534 35.5808 10.7313 35.8215 9.16782L37.2165 0.0446777L38.1343 0.0446777C40.1799 0.0446777 40.8341 0.649839 40.5357 2.598L39.1899 11.3534Z" fill="white"/>
<path fill-rule="evenodd" clip-rule="evenodd" d="M51.0927 11.3532L52.0303 5.23202C52.513 2.04921 51.2794 0.0446777 47.4755 0.0446777C44.0639 0.0446777 41.7043 2.04935 41.2327 5.13458L40.6191 9.16767C40.3785 10.731 41.1578 11.3532 42.7432 11.3532H43.9851L44.953 5.07384C45.1544 3.77031 45.8474 3.04616 46.9215 3.04616C48.1661 3.04616 48.5538 3.69181 48.3382 5.13458L47.7132 9.16767C47.4672 10.8075 47.892 11.3532 49.5264 11.3532H51.0927V11.3532Z" fill="white"/>
<path fill-rule="evenodd" clip-rule="evenodd" d="M53.0119 5.93023C52.5314 9.08944 54.6806 11.3534 57.74 11.3534C61.4504 11.3534 63.9246 9.08944 64.4559 5.57995C64.9723 2.26344 62.6718 0.041748 59.752 0.041748C56.3726 0.041748 53.5591 2.38389 53.0119 5.93023ZM60.7434 5.911C60.5147 7.39718 59.5928 8.46681 58.4167 8.46681C57.1101 8.46681 56.4281 7.567 56.7429 5.50188C56.9728 4.04018 58.0511 2.96574 59.0704 2.96574C60.357 2.96574 61.0386 3.98061 60.7434 5.911Z" fill="white"/>
<path fill-rule="evenodd" clip-rule="evenodd" d="M73.9831 7.58541C74.2639 5.77342 73.1996 4.80036 71.4539 4.51052C69.2627 4.1349 69.0502 3.99872 69.1182 3.59135C69.1794 3.14115 69.6909 2.77034 71.0707 2.77034C72.5161 2.77034 73.5879 3.14115 74.2359 3.67043L74.5013 2.55595C74.7428 0.954712 73.4507 0 71.0661 0C68.6131 0 65.9727 1.30907 65.5793 3.88264C65.3164 5.59704 66.1917 6.47835 68.0828 6.75085C70.2595 7.06079 70.4848 7.25188 70.4092 7.743C70.3281 8.27257 69.8537 8.58221 68.5084 8.58221C66.9871 8.58221 65.9727 8.1712 65.3486 7.64585L65.0857 8.71883C64.8473 10.2832 65.7387 11.3533 68.6699 11.3533C71.6127 11.3533 73.6335 9.89084 73.9831 7.58541Z" fill="white"/>
</svg>
