<svg width="22" height="22" viewBox="0 0 239 239" fill="none" xmlns="http://www.w3.org/2000/svg">
<path d="M215.154 179.422V215.142H179.433V238.955H221.09C225.741 238.955 229.897 237.042 233.459 233.48C237.021 229.918 238.934 225.729 238.934 221.112V179.455H215.154V179.422ZM24.6455 215.142V179.422H0.832031V221.079C0.832031 225.729 2.74502 229.885 6.30715 233.447C9.86928 237.009 14.0581 238.922 18.6757 238.922H60.3328V215.109H24.6455V215.142ZM233.492 6.29549C229.93 2.73336 225.741 0.820374 221.123 0.820374H179.466V24.6339H215.187V60.3541H239V18.664C238.967 14.0464 237.054 9.85762 233.492 6.29549ZM18.7087 0.820374C14.0581 0.820374 9.90227 2.73336 6.34014 6.29549C2.77801 9.85762 0.865006 14.0464 0.865006 18.664V60.3541H24.6785V24.6339H60.3988V0.820374H18.7087Z" fill="#242424"/>
<path fill-rule="evenodd" clip-rule="evenodd" d="M128.838 29.5152L194.078 67.3793C200.015 71.1723 203.247 76.3176 203.247 83.1121V158.346C203.247 165.14 200.015 170.252 194.078 174.078L128.838 211.942C122.868 215.735 116.931 215.735 110.961 211.942L45.7215 174.078C39.7847 170.252 36.5524 165.14 36.5524 158.346V83.1121C36.5524 76.3176 39.7847 71.1723 45.7215 67.3793L110.961 29.5152C113.963 27.965 116.931 27.2394 119.9 27.2394C122.868 27.2394 125.869 27.965 128.838 29.5152ZM60.3659 155.014L107.993 182.39V127.738L60.3659 100.362V155.014ZM72.2726 79.7478L119.9 107.025L167.527 79.7478L119.9 51.7785L72.2726 79.7478ZM159.94 161.776C162.282 160.127 164.426 156.664 164.69 150.859L164.921 146.044L162.282 147.924C157.335 151.453 155.257 154.982 155.059 159.27C154.894 163.359 156.279 164.382 159.94 161.776ZM177.817 125.528L177.355 135.423C176.3 158.643 171.583 168.406 157.862 178.235C150.573 183.446 141.965 183.941 142.624 169.395C143.251 155.246 149.65 143.735 163.403 133.939L165.25 132.62L165.382 129.915C165.613 124.704 163.271 125.099 158.126 128.794C151.068 133.84 148.33 138.523 145.098 144.856L145.461 137.072C145.791 129.156 151.035 117.81 161.853 110.092C172.309 102.638 178.674 106.695 177.817 125.528Z" fill="#242424"/>
</svg>
