<svg width="139" height="110" viewBox="0 0 139 110" fill="none" xmlns="http://www.w3.org/2000/svg">
<rect width="139" height="110" fill="white"/>
<path d="M77.2172 57.3476V60.2172H74.3476V62.1302H77.6941C78.0677 62.1302 78.4016 61.9765 78.6877 61.6904C78.9739 61.4042 79.1275 61.0677 79.1275 60.6968V57.3503H77.2172V57.3476ZM61.913 60.2172V57.3476H60V60.6941C60 61.0677 60.1537 61.4016 60.4398 61.6877C60.726 61.9739 61.0625 62.1275 61.4334 62.1275H64.7799V60.2145H61.913V60.2172ZM78.6904 43.4398C78.4042 43.1537 78.0677 43 77.6968 43H74.3503V44.913H77.2198V47.7825H79.1328V44.4334C79.1302 44.0625 78.9765 43.726 78.6904 43.4398ZM61.4361 43C61.0625 43 60.7286 43.1537 60.4425 43.4398C60.1563 43.726 60.0026 44.0625 60.0026 44.4334V47.7825H61.9157V44.913H64.7852V43H61.4361Z" fill="#CFCFCF"/>
<path fill-rule="evenodd" clip-rule="evenodd" d="M70.1248 46.9258L74.2102 49.2969C74.582 49.5344 74.7844 49.8566 74.7844 50.2821V54.9933C74.7844 55.4188 74.582 55.7389 74.2102 55.9785L70.1248 58.3496C69.751 58.5872 69.3792 58.5872 69.0054 58.3496L64.92 55.9785C64.5482 55.7389 64.3458 55.4188 64.3458 54.9933V50.2821C64.3458 49.8566 64.5482 49.5344 64.92 49.2969L69.0054 46.9258C69.1933 46.8287 69.3792 46.7832 69.5651 46.7832C69.751 46.7832 69.9389 46.8287 70.1248 46.9258ZM65.837 54.7847L68.8195 56.499V53.0766L65.837 51.3623V54.7847ZM66.5826 50.0714L69.5651 51.7795L72.5476 50.0714L69.5651 48.3199L66.5826 50.0714ZM72.0725 55.2081C72.2192 55.1048 72.3534 54.888 72.3699 54.5245L72.3844 54.2229L72.2192 54.3406C71.9094 54.5616 71.7792 54.7826 71.7668 55.0511C71.7565 55.3073 71.8433 55.3713 72.0725 55.2081ZM73.192 52.9382L73.1631 53.5578C73.097 55.0119 72.8016 55.6233 71.9424 56.2388C71.4859 56.5651 70.9469 56.5961 70.9882 55.6852C71.0274 54.7992 71.4281 54.0783 72.2894 53.4649L72.4051 53.3823L72.4133 53.2129C72.4278 52.8866 72.2811 52.9114 71.9589 53.1427C71.5169 53.4587 71.3455 53.752 71.1431 54.1486L71.1658 53.6611C71.1865 53.1654 71.5149 52.4549 72.1923 51.9716C72.8471 51.5048 73.2457 51.7589 73.192 52.9382Z" fill="#CFCFCF"/>
<path d="M60.7202 65.3865V63.8926H60.2824V65.8079H61.4042V65.3865H60.7202ZM62.2266 65.8462C62.6288 65.8462 62.9517 65.5315 62.9517 65.1239C62.9517 64.7162 62.6288 64.4015 62.2266 64.4015C61.8244 64.4015 61.5016 64.7162 61.5016 65.1239C61.5016 65.5315 61.8244 65.8462 62.2266 65.8462ZM62.2266 65.4467C62.0488 65.4467 61.912 65.3181 61.912 65.1239C61.912 64.9296 62.0488 64.801 62.2266 64.801C62.4045 64.801 62.5413 64.9296 62.5413 65.1239C62.5413 65.3181 62.4045 65.4467 62.2266 65.4467ZM64.177 64.4398V64.5684C64.0867 64.4645 63.9527 64.4015 63.7694 64.4015C63.4109 64.4015 63.1154 64.7162 63.1154 65.1239C63.1154 65.5315 63.4109 65.8462 63.7694 65.8462C63.9527 65.8462 64.0867 65.7833 64.177 65.6793V65.8079H64.5875V64.4398H64.177ZM63.8514 65.4577C63.6627 65.4577 63.5258 65.3291 63.5258 65.1239C63.5258 64.9187 63.6627 64.7901 63.8514 64.7901C64.0402 64.7901 64.177 64.9187 64.177 65.1239C64.177 65.3291 64.0402 65.4577 63.8514 65.4577ZM65.8818 63.8926V64.5684C65.7915 64.4645 65.6574 64.4015 65.4741 64.4015C65.1156 64.4015 64.8202 64.7162 64.8202 65.1239C64.8202 65.5315 65.1156 65.8462 65.4741 65.8462C65.6574 65.8462 65.7915 65.7833 65.8818 65.6793V65.8079H66.2922V63.8926H65.8818ZM65.5562 65.4577C65.3674 65.4577 65.2306 65.3291 65.2306 65.1239C65.2306 64.9187 65.3674 64.7901 65.5562 64.7901C65.745 64.7901 65.8818 64.9187 65.8818 65.1239C65.8818 65.3291 65.745 65.4577 65.5562 65.4577ZM66.7985 64.3195C66.9325 64.3195 67.0447 64.2073 67.0447 64.0732C67.0447 63.9391 66.9325 63.827 66.7985 63.827C66.6644 63.827 66.5522 63.9391 66.5522 64.0732C66.5522 64.2073 66.6644 64.3195 66.7985 64.3195ZM66.5933 65.8079H67.0037V64.4398H66.5933V65.8079ZM68.1057 64.4015C67.9251 64.4015 67.7883 64.4672 67.7144 64.5684V64.4398H67.304V65.8079H67.7144V65.0609C67.7144 64.8667 67.8184 64.7791 67.9689 64.7791C68.1002 64.7791 68.2069 64.8585 68.2069 65.0281V65.8079H68.6173V64.9679C68.6173 64.5985 68.382 64.4015 68.1057 64.4015ZM69.9033 64.4398V64.5794C69.813 64.4672 69.6817 64.4015 69.5039 64.4015C69.1153 64.4015 68.8308 64.7189 68.8308 65.0965C68.8308 65.4741 69.1153 65.7915 69.5039 65.7915C69.6817 65.7915 69.813 65.7258 69.9033 65.6136V65.7395C69.9033 65.9338 69.7857 66.0323 69.5942 66.0323C69.4136 66.0323 69.3342 65.9556 69.2822 65.8599L68.932 66.0623C69.0579 66.2867 69.2959 66.3934 69.5805 66.3934C69.9444 66.3934 70.3028 66.1992 70.3028 65.7395V64.4398H69.9033ZM69.5723 65.4139C69.378 65.4139 69.2412 65.2853 69.2412 65.0965C69.2412 64.9077 69.378 64.7791 69.5723 64.7791C69.7665 64.7791 69.9033 64.9077 69.9033 65.0965C69.9033 65.2853 69.7665 65.4139 69.5723 65.4139ZM72.8201 64.4015C72.6259 64.4015 72.5 64.4727 72.4234 64.5821C72.3468 64.4672 72.2264 64.4015 72.065 64.4015C71.8817 64.4015 71.7613 64.4727 71.6983 64.5657V64.4398H71.2879V65.8079H71.6983V65.0363C71.6983 64.8749 71.775 64.7791 71.9118 64.7791C72.0431 64.7791 72.1088 64.8667 72.1088 65.0035V65.8079H72.5192V65.0363C72.5192 64.8749 72.5958 64.7791 72.7326 64.7791C72.8639 64.7791 72.9296 64.8667 72.9296 65.0035V65.8079H73.34V64.9679C73.34 64.6259 73.1348 64.4015 72.8201 64.4015ZM74.2772 65.8462C74.6794 65.8462 75.0023 65.5315 75.0023 65.1239C75.0023 64.7162 74.6794 64.4015 74.2772 64.4015C73.875 64.4015 73.5522 64.7162 73.5522 65.1239C73.5522 65.5315 73.875 65.8462 74.2772 65.8462ZM74.2772 65.4467C74.0994 65.4467 73.9626 65.3181 73.9626 65.1239C73.9626 64.9296 74.0994 64.801 74.2772 64.801C74.4551 64.801 74.5919 64.9296 74.5919 65.1239C74.5919 65.3181 74.4551 65.4467 74.2772 65.4467ZM76.2276 63.8926V64.5684C76.1373 64.4645 76.0033 64.4015 75.82 64.4015C75.4615 64.4015 75.166 64.7162 75.166 65.1239C75.166 65.5315 75.4615 65.8462 75.82 65.8462C76.0033 65.8462 76.1373 65.7833 76.2276 65.6793V65.8079H76.6381V63.8926H76.2276ZM75.902 65.4577C75.7133 65.4577 75.5764 65.3291 75.5764 65.1239C75.5764 64.9187 75.7133 64.7901 75.902 64.7901C76.0908 64.7901 76.2276 64.9187 76.2276 65.1239C76.2276 65.3291 76.0908 65.4577 75.902 65.4577ZM77.3058 65.288H78.2771C78.2881 65.236 78.2935 65.1813 78.2935 65.1239C78.2935 64.7107 77.998 64.4015 77.5986 64.4015C77.1663 64.4015 76.8708 64.7162 76.8708 65.1239C76.8708 65.5315 77.1608 65.8462 77.6287 65.8462C77.8886 65.8462 78.0911 65.7504 78.2251 65.5644L77.8968 65.3756C77.8421 65.4358 77.7463 65.4796 77.6341 65.4796C77.4836 65.4796 77.3578 65.4303 77.3058 65.288ZM77.2976 64.9816C77.3359 64.842 77.4399 64.7654 77.5958 64.7654C77.7189 64.7654 77.8421 64.8229 77.8858 64.9816H77.2976ZM78.5263 65.8079H78.9367V63.8105H78.5263V65.8079Z" fill="#CFCFCF"/>
</svg>
