<svg width="51" height="51" viewBox="0 0 51 51" fill="none" xmlns="http://www.w3.org/2000/svg">
<circle cx="25.104" cy="25.896" r="25.104" fill="black"/>
<mask id="mask0" mask-type="alpha" maskUnits="userSpaceOnUse" x="1" y="2" width="48" height="48">
<circle cx="25.1039" cy="25.8959" r="23.7374" fill="#C4C4C4"/>
</mask>
<g mask="url(#mask0)">
<path d="M16 21.5C16 21.2239 16.2239 21 16.5 21H33.5C33.7761 21 34 21.2239 34 21.5V34.5C34 34.7761 33.7761 35 33.5 35H16.5C16.2239 35 16 34.7761 16 34.5V21.5Z" fill="white"/>
<path d="M16 17.5C16 17.2239 16.2239 17 16.5 17H33.5C33.7761 17 34 17.2239 34 17.5V19.5C34 19.7761 33.7761 20 33.5 20H16.5C16.2239 20 16 19.7761 16 19.5V17.5Z" fill="white"/>
<path d="M10 17.5C10 17.2239 10.2239 17 10.5 17H14.5C14.7761 17 15 17.2239 15 17.5V34.5C15 34.7761 14.7761 35 14.5 35H10.5C10.2239 35 10 34.7761 10 34.5V17.5Z" fill="white"/>
<path d="M35 17.5C35 17.2239 35.2239 17 35.5 17H39.5C39.7761 17 40 17.2239 40 17.5V34.5C40 34.7761 39.7761 35 39.5 35H35.5C35.2239 35 35 34.7761 35 34.5V17.5Z" fill="white"/>
</g>
</svg>
