<svg width="51" height="51" viewBox="0 0 51 51" fill="none" xmlns="http://www.w3.org/2000/svg">
<path d="M25.104 51C38.9686 51 50.208 39.7605 50.208 25.896C50.208 12.0314 38.9686 0.791992 25.104 0.791992C11.2395 0.791992 0 12.0314 0 25.896C0 39.7605 11.2395 51 25.104 51Z" fill="black"/>
<path d="M18.6 24.5357L20.9416 24.0306C22.3182 23.7338 23.6759 24.6095 23.9735 25.9852L25.411 32.6547L36.8759 32.6676C38.2868 32.671 39.4258 33.8135 39.4207 35.2227L39.4173 37.6191C39.4155 39.0266 38.2731 40.1656 36.8656 40.1639L21.4502 40.1459C20.5607 40.1433 19.7802 39.6861 19.3239 38.9931C19.1275 38.7186 18.9826 38.4013 18.9054 38.0505L16.6436 27.5634C16.3503 26.1902 17.2234 24.8334 18.6 24.5357Z" fill="white"/>
<path d="M10.5128 20.1951L10.5617 21.003C10.5617 22.4157 11.5369 22.9706 12.9384 22.9706L18.9002 22.962C20.3043 22.9509 21.6277 22.3771 21.6192 20.9739L21.5668 20.1659C21.5668 18.7644 20.6036 18.1983 19.1927 18.2086L13.2309 18.2189C12.7823 18.2189 12.3448 18.2773 11.9563 18.4145C11.1261 18.6658 10.5128 19.2405 10.5128 20.1951Z" fill="white"/>
<path d="M11.9564 18.4135L15.461 22.9627H18.9004C20.3044 22.9516 21.6279 22.3778 21.6193 20.9746L21.567 20.1666C21.567 18.7652 20.6038 18.1991 19.1928 18.2094L13.231 18.2197C12.7824 18.2179 12.345 18.2763 11.9564 18.4135Z" fill="#A3A1A1"/>
<path d="M21.5301 19.0534C22.344 20.2044 22.4418 21.3177 21.289 22.1317L20.6561 22.6292C19.5067 23.4431 18.2837 22.6926 17.4714 21.5433L14.0406 16.6682C13.2267 15.5188 13.1323 14.4055 14.2834 13.5907L14.9163 13.0924C16.0657 12.281 17.2904 13.0298 18.101 14.1791L21.5301 19.0534Z" fill="white"/>
<path d="M19.8807 13.0082C19.5908 13.0082 19.3249 12.8237 19.2323 12.5347C19.1199 12.177 19.3181 11.7954 19.6749 11.683C19.8893 11.6144 20.1106 11.5509 20.3284 11.49C20.6886 11.3922 21.0635 11.6058 21.163 11.966C21.2616 12.328 21.0489 12.7011 20.6869 12.8006C20.4879 12.8555 20.2829 12.9147 20.0857 12.9764C20.0162 12.9979 19.9476 13.0082 19.8807 13.0082Z" fill="#A3A1A1"/>
<path d="M27.8058 12.6727C27.7552 12.6727 27.7072 12.6667 27.6566 12.6556C26.129 12.3142 24.5191 12.2233 22.959 12.3811C22.5919 12.418 22.2522 12.1487 22.2153 11.7747C22.1767 11.4008 22.4478 11.0697 22.8217 11.0311C24.5285 10.8579 26.2808 10.9591 27.9508 11.3313C28.3179 11.4136 28.5469 11.7764 28.4654 12.1418C28.3951 12.4575 28.1154 12.6727 27.8058 12.6727Z" fill="#A3A1A1"/>
<path d="M38.1247 20.9317C37.8682 20.9317 37.6238 20.7876 37.508 20.5414C35.9667 17.2513 33.2718 14.6705 29.9156 13.2724C29.5691 13.1284 29.4061 12.7304 29.5485 12.3847C29.6926 12.0382 30.0915 11.8744 30.4362 12.0193C34.1046 13.5469 37.0534 16.3696 38.737 19.9651C38.8966 20.3047 38.7508 20.7087 38.4103 20.8682C38.3176 20.912 38.2199 20.9317 38.1247 20.9317Z" fill="#A3A1A1"/>
<path d="M39.6926 27.5335C39.3187 27.5335 39.0142 27.2298 39.0142 26.855C39.0142 25.3746 38.7946 23.9191 38.3606 22.5279C38.2482 22.1694 38.4498 21.7895 38.8066 21.6771C39.1669 21.5665 39.5451 21.7663 39.6557 22.124C40.1318 23.6455 40.371 25.2383 40.371 26.855C40.371 27.2298 40.0683 27.5335 39.6926 27.5335Z" fill="#A3A1A1"/>
<path d="M39.48 30.0971C39.4414 30.0971 39.4046 30.0945 39.366 30.0876C38.9972 30.0268 38.7476 29.6768 38.8085 29.3063C38.8316 29.1733 38.8522 29.0395 38.8702 28.9049C38.9242 28.5344 39.269 28.2728 39.6387 28.3294C40.0092 28.3817 40.2683 28.7248 40.2151 29.097C40.1954 29.242 40.1714 29.3869 40.1482 29.531C40.0933 29.8621 39.8051 30.0971 39.48 30.0971Z" fill="#A3A1A1"/>
</svg>
