<svg width="50" height="50" viewBox="0 0 50 50" fill="none" xmlns="http://www.w3.org/2000/svg">
<path d="M17.5 24.275L18.225 23.525L18.95 24.275C19.1824 24.5093 19.4589 24.6953 19.7636 24.8222C20.0682 24.9491 20.395 25.0145 20.725 25.0145C21.055 25.0145 21.3818 24.9491 21.6864 24.8222C21.9911 24.6953 22.2676 24.5093 22.5 24.275C22.7343 24.0426 22.9203 23.7661 23.0472 23.4614C23.1742 23.1568 23.2395 22.83 23.2395 22.5C23.2395 22.17 23.1742 21.8432 23.0472 21.5386C22.9203 21.2339 22.7343 20.9574 22.5 20.725L21.75 20L22.5 19.275C22.9708 18.791 23.23 18.1398 23.2206 17.4646C23.2112 16.7895 22.934 16.1458 22.45 15.675C21.966 15.2042 21.3148 14.945 20.6397 14.9544C19.9645 14.9638 19.3208 15.241 18.85 15.725L18.125 16.475L17.5 15.725C17.0292 15.241 16.3855 14.9638 15.7104 14.9544C15.0352 14.945 14.384 15.2042 13.9 15.675C13.416 16.1458 13.1388 16.7895 13.1294 17.4646C13.12 18.1398 13.3792 18.791 13.85 19.275L14.6 20L13.85 20.725C13.6157 20.9574 13.4297 21.2339 13.3028 21.5386C13.1759 21.8432 13.1105 22.17 13.1105 22.5C13.1105 22.83 13.1759 23.1568 13.3028 23.4614C13.4297 23.7661 13.6157 24.0426 13.85 24.275C14.0824 24.5093 14.3589 24.6953 14.6636 24.8222C14.9682 24.9491 15.295 25.0145 15.625 25.0145C15.955 25.0145 16.2818 24.9491 16.5864 24.8222C16.8911 24.6953 17.1676 24.5093 17.4 24.275H17.5ZM16 33.325C15.4961 33.7482 15.1794 34.353 15.1185 35.0082C15.0577 35.6635 15.2577 36.3162 15.675 36.825C15.8849 37.0781 16.1426 37.2874 16.4335 37.4408C16.7244 37.5942 17.0426 37.6886 17.3701 37.7188C17.6975 37.749 18.0277 37.7143 18.3417 37.6167C18.6557 37.5191 18.9474 37.3605 19.2 37.15C20.8712 35.8026 22.9533 35.0678 25.1 35.0678C27.2467 35.0678 29.3288 35.8026 31 37.15C31.2526 37.3605 31.5443 37.5191 31.8583 37.6167C32.1723 37.7143 32.5025 37.749 32.8299 37.7188C33.1574 37.6886 33.4756 37.5942 33.7665 37.4408C34.0574 37.2874 34.3151 37.0781 34.525 36.825C34.9424 36.3162 35.1423 35.6635 35.0815 35.0082C35.0206 34.353 34.7039 33.7482 34.2 33.325C31.6124 31.2261 28.3818 30.0806 25.05 30.0806C21.7182 30.0806 18.4876 31.2261 15.9 33.325H16ZM25 0C20.0555 0 15.222 1.46622 11.1108 4.21326C6.99952 6.96029 3.79521 10.8648 1.90302 15.4329C0.0108321 20.0011 -0.484251 25.0277 0.480379 29.8772C1.44501 34.7268 3.82603 39.1813 7.32234 42.6777C10.8187 46.174 15.2732 48.555 20.1228 49.5196C24.9723 50.4843 29.9989 49.9892 34.5671 48.097C39.1352 46.2048 43.0397 43.0005 45.7867 38.8892C48.5338 34.778 50 29.9445 50 25C50 21.7169 49.3534 18.466 48.097 15.4329C46.8406 12.3998 44.9991 9.64379 42.6777 7.32233C40.3562 5.00086 37.6002 3.15938 34.5671 1.90301C31.534 0.646644 28.2831 0 25 0V0ZM25 45C21.0444 45 17.1776 43.827 13.8886 41.6294C10.5996 39.4318 8.03617 36.3082 6.52242 32.6537C5.00867 28.9991 4.6126 24.9778 5.38431 21.0982C6.15601 17.2186 8.06082 13.6549 10.8579 10.8579C13.6549 8.06081 17.2186 6.156 21.0982 5.38429C24.9778 4.61259 28.9992 5.00866 32.6537 6.52241C36.3082 8.03616 39.4318 10.5996 41.6294 13.8886C43.827 17.1776 45 21.0444 45 25C45 30.3043 42.8929 35.3914 39.1421 39.1421C35.3914 42.8929 30.3043 45 25 45V45ZM37.5 15.725C37.2676 15.4907 36.9911 15.3047 36.6864 15.1778C36.3818 15.0508 36.055 14.9855 35.725 14.9855C35.395 14.9855 35.0682 15.0508 34.7636 15.1778C34.4589 15.3047 34.1824 15.4907 33.95 15.725L33.225 16.475L32.5 15.725C32.0292 15.2542 31.3908 14.9898 30.725 14.9898C30.0593 14.9898 29.4208 15.2542 28.95 15.725C28.4792 16.1958 28.2148 16.8342 28.2148 17.5C28.2148 18.1657 28.4792 18.8042 28.95 19.275L29.7 20L28.95 20.725C28.7157 20.9574 28.5297 21.2339 28.4028 21.5386C28.2759 21.8432 28.2105 22.17 28.2105 22.5C28.2105 22.83 28.2759 23.1568 28.4028 23.4614C28.5297 23.7661 28.7157 24.0426 28.95 24.275C29.1824 24.5093 29.4589 24.6953 29.7636 24.8222C30.0682 24.9491 30.395 25.0145 30.725 25.0145C31.055 25.0145 31.3818 24.9491 31.6864 24.8222C31.9911 24.6953 32.2676 24.5093 32.5 24.275L33.225 23.525L33.95 24.275C34.1824 24.5093 34.4589 24.6953 34.7636 24.8222C35.0682 24.9491 35.395 25.0145 35.725 25.0145C36.055 25.0145 36.3818 24.9491 36.6864 24.8222C36.9911 24.6953 37.2676 24.5093 37.5 24.275C37.7343 24.0426 37.9203 23.7661 38.0472 23.4614C38.1742 23.1568 38.2395 22.83 38.2395 22.5C38.2395 22.17 38.1742 21.8432 38.0472 21.5386C37.9203 21.2339 37.7343 20.9574 37.5 20.725L36.75 20L37.5 19.275C37.7343 19.0426 37.9203 18.7661 38.0472 18.4614C38.1742 18.1568 38.2395 17.83 38.2395 17.5C38.2395 17.17 38.1742 16.8432 38.0472 16.5386C37.9203 16.2339 37.7343 15.9574 37.5 15.725Z" fill="black"/>
</svg>
