<svg width="51" height="51" viewBox="0 0 51 51" fill="none" xmlns="http://www.w3.org/2000/svg">
<circle cx="25.864" cy="25.896" r="25.104" fill="black"/>
<mask id="mask0" mask-type="alpha" maskUnits="userSpaceOnUse" x="2" y="2" width="48" height="48">
<circle cx="25.8639" cy="25.8959" r="23.7374" fill="#C4C4C4"/>
</mask>
<g mask="url(#mask0)">
<path d="M27.0915 37.9567C26.9899 37.8887 26.9025 37.8013 26.8346 37.6998L27.028 37.5703C26.9538 37.4595 26.9105 37.3264 26.9105 37.1825V35.8384H26.6777V34.9424H26.9105V32.2542H26.6777V31.3581H26.9105V28.67H26.6777V27.7739H26.9105V25.0857H26.6777V24.1897H26.9105V23.0783H28.0137V22.8456H28.9043V23.0783H31.5762V22.8456H32.4668V23.0783H35.1387V22.8456H36.0294V23.0783H38.7012V22.8456H39.5919V23.0783H42.2638V22.8456H43.1544V23.0783H44.2576V24.1897H44.4903V25.0857H44.2576V27.7739H44.4903V28.67H44.2576V31.3581H44.4903V32.2542H44.2576V34.9424H44.4903V35.8384H44.2576V37.1825C44.2576 37.3264 44.2143 37.4595 44.1401 37.5703L44.3335 37.6998C44.2656 37.8013 44.1781 37.8887 44.0766 37.9567L43.9471 37.7633C43.8363 37.8375 43.7032 37.8808 43.5593 37.8808H42.0639V38.1135H41.067V37.8808H38.0763V38.1135H37.0794V37.8808H34.0887V38.1135H33.0918V37.8808H30.101V38.1135H29.1041V37.8808H27.6088C27.4649 37.8808 27.3318 37.8375 27.221 37.7633L27.0915 37.9567Z" stroke="#C4C4C4" stroke-width="0.465517" stroke-dasharray="2.79 0.93"/>
<path d="M26.6777 13.167C26.6777 12.8908 26.9016 12.667 27.1777 12.667H43.9903C44.2665 12.667 44.4903 12.8908 44.4903 13.167V27.4349C44.4903 27.7111 44.2665 27.9349 43.9903 27.9349H27.1777C26.9016 27.9349 26.6777 27.7111 26.6777 27.4349V13.167Z" fill="white"/>
<path d="M7.59277 13.167C7.59277 12.8908 7.81663 12.667 8.09277 12.667H24.9054C25.1815 12.667 25.4054 12.8908 25.4054 13.167V37.6136C25.4054 37.8897 25.1815 38.1136 24.9054 38.1136H8.09277C7.81663 38.1136 7.59277 37.8897 7.59277 37.6136V13.167Z" fill="white"/>
<path d="M8.64855 27.7181C8.52888 27.8378 8.52888 28.0318 8.64855 28.1515L10.5987 30.1017C10.7184 30.2214 10.9124 30.2214 11.0321 30.1017C11.1518 29.982 11.1518 29.788 11.0321 29.6683L9.29861 27.9348L11.0321 26.2013C11.1518 26.0817 11.1518 25.8876 11.0321 25.7679C10.9124 25.6483 10.7184 25.6483 10.5987 25.7679L8.64855 27.7181ZM24.3499 28.1515C24.4695 28.0318 24.4695 27.8378 24.3499 27.7181L22.3997 25.7679C22.28 25.6483 22.086 25.6483 21.9663 25.7679C21.8467 25.8876 21.8467 26.0817 21.9663 26.2013L23.6998 27.9348L21.9663 29.6683C21.8467 29.788 21.8467 29.982 21.9663 30.1017C22.086 30.2214 22.28 30.2214 22.3997 30.1017L24.3499 28.1515ZM8.86523 28.2413L24.1332 28.2413V27.6284L8.86523 27.6284V28.2413Z" fill="black"/>
</g>
<line x1="19.6421" y1="21.8821" x2="13.3092" y2="21.8821" stroke="black" stroke-width="0.5" stroke-linecap="round"/>
<line x1="16.5674" y1="25.1403" x2="16.5674" y2="18.8074" stroke="black" stroke-width="0.5" stroke-linecap="round"/>
</svg>
